Coordinates
version=1
nRows=10
nColumns=40
inDegrees=yes

Units are S.I. units (second, meters, Newtons, ...)
Angles are in degrees.

endheader
time	pelvis_tilt	pelvis_list	pelvis_rotation	pelvis_tx	pelvis_ty	pelvis_tz	hip_flexion_r	hip_adduction_r	hip_rotation_r	knee_angle_r	knee_angle_r_beta	ankle_angle_r	subtalar_angle_r	mtp_angle_r	hip_flexion_l	hip_adduction_l	hip_rotation_l	knee_angle_l	knee_angle_l_beta	ankle_angle_l	subtalar_angle_l	mtp_angle_l	lumbar_extension	lumbar_bending	lumbar_rotation	arm_flex_r	arm_add_r	arm_rot_r	elbow_flex_r	pro_sup_r	wrist_flex_r	wrist_dev_r	arm_flex_l	arm_add_l	arm_rot_l	elbow_flex_l	pro_sup_l	wrist_flex_l	wrist_dev_l
     58.45000000	     -2.53793649	     -4.34971926	     -0.72420232	      1.06625984	      0.92987408	      0.50784600	     16.80034157	      0.84061369	    -11.13721563	     18.72137319	     18.72137319	      5.84601756	     -3.70662209	     -5.11936554	      4.55849233	    -11.03883455	     -8.83621760	     32.75889794	     32.75889794	     14.17246267	    -10.19986014	     -8.25264072	     -8.81535094	      5.43290387	      0.89760776	      1.29740106	    -13.71234534	     -3.89908550	     41.33183320	     45.52239239	      0.00000000	      0.00000000	     12.58102063	    -13.45186781	     -7.73286206	     53.57187612	     47.25976256	      0.00000000	      0.00000000
     58.46342857	     -2.48609087	     -4.47167875	     -0.26991864	      1.06668370	      0.93009619	      0.51076483	     16.24899091	      1.07826403	    -11.64089155	     18.62016912	     18.62016912	      6.24831422	     -3.56148683	     -5.27436840	      6.46636932	    -11.74006594	     -7.65859814	     36.63150224	     36.63150224	     12.67217228	    -11.44059800	     -8.90144852	     -8.80477614	      5.52561094	      0.53757115	      2.88385403	    -13.90765396	     -3.99646247	     42.74675793	     45.48520183	      0.00000000	      0.00000000	     11.35607627	    -13.25287184	     -7.38202811	     51.96856093	     47.19261916	      0.00000000	      0.00000000
     58.47685714	     -2.38798234	     -4.46208739	      0.19545304	      1.06675954	      0.93023216	      0.51339180	     15.76696186	      1.09625867	    -12.31907221	     18.72387822	     18.72387822	      6.69147719	     -3.10976780	     -5.58573777	      8.38647060	    -12.09161356	     -6.17932996	     40.37470437	     40.37470437	     10.50622845	    -13.40758517	    -10.01189169	     -8.88708826	      5.50501493	      0.72791743	      3.69403329	    -14.61702539	     -3.28993906	     46.04679814	     45.34096348	      0.00000000	      0.00000000	     11.48452214	    -12.70511174	     -6.77916541	     47.69514220	     47.06500929	      0.00000000	      0.00000000
     58.49028571	     -2.37711071	     -4.58582670	      0.67937080	      1.06657493	      0.93009710	      0.51598590	     15.35823063	      1.31009020	    -12.85726364	     18.73877269	     18.73877269	      7.07793973	     -3.01706236	     -5.74455435	     10.59519777	    -12.60269165	     -4.79754239	     44.31865934	     44.31865934	      8.90316423	    -14.46448745	     -9.83828948	     -8.90310751	      5.59156862	      0.49543075	      5.32610644	    -14.92874211	     -3.29694773	     47.90175056	     45.28687263	      0.00000000	      0.00000000	     10.51153970	    -12.43556345	     -6.43953557	     45.62276559	     46.99146049	      0.00000000	      0.00000000
     58.50371429	     -2.31651563	     -4.66083197	      1.14940871	      1.06613827	      0.92995293	      0.51829561	     14.96929129	      1.41714239	    -13.48334921	     18.86988179	     18.86988179	      7.50271475	     -2.68729603	     -5.87580486	     12.83999936	    -12.90802151	     -3.35104461	     48.25215052	     48.25215052	      8.06040912	    -15.04496652	     -7.54004226	     -9.01011795	      5.67710368	      1.08363910	      5.92255982	    -15.98782522	     -2.54141948	     51.51694789	     45.14563508	      0.00000000	      0.00000000	     10.90420899	    -11.67951120	     -5.85349519	     41.26140268	     46.86173501	      0.00000000	      0.00000000
     58.51714286	     -2.29030642	     -4.74538719	      1.62058407	      1.06551572	      0.92967563	      0.52051630	     14.64684345	      1.55750287	    -13.98874618	     19.02805900	     19.02805900	      7.99578132	     -2.58229660	     -5.96515953	     15.09891700	    -13.13442340	     -1.95600360	     51.87700819	     51.87700819	      7.44622438	    -15.43346528	     -4.96691615	     -9.10737244	      5.68464340	      1.15517799	      7.39574357	    -16.57826066	     -2.49340767	     54.05556711	     45.08165932	      0.00000000	      0.00000000	     10.35094145	    -11.24479020	     -5.44579892	     38.59525719	     46.76063908	      0.00000000	      0.00000000
     58.53057143	     -2.18781835	     -4.84448879	      2.02686354	      1.06467809	      0.92965373	      0.52261465	     14.22153686	      1.75160763	    -14.36551210	     19.06387883	     19.06387883	      8.21784242	     -2.63019934	     -6.01053015	     17.11753464	    -13.42879955	     -0.91900746	     54.88523417	     54.88523417	      6.13109124	    -15.86998112	     -4.50189853	     -9.36918776	      5.79478439	      1.36345490	      9.31223544	    -17.07769383	     -2.76228725	     55.19397936	     45.06506212	      0.00000000	      0.00000000	      9.28500265	    -10.81739083	     -5.27684439	     37.62333052	     46.71811849	      0.00000000	      0.00000000
     58.54400000	     -2.29317629	     -4.82223899	      2.47526407	      1.06364419	      0.92934207	      0.52434345	     14.10931028	      1.74042498	    -14.81007384	     19.29127246	     19.29127246	      8.72735336	     -2.50230021	     -5.85264283	     19.50928035	    -13.34515125	      0.29232384	     57.91154869	     57.91154869	      7.17886260	    -15.47285325	      1.25335464	     -9.31943758	      5.76732812	      1.48820050	     10.26969168	    -18.00290940	     -1.96567833	     59.09958803	     44.93502357	      0.00000000	      0.00000000	      9.33179912	    -10.30379357	     -4.82677274	     33.33996332	     46.60755684	      0.00000000	      0.00000000
     58.55742857	     -2.30891350	     -4.81267082	      2.87291699	      1.06260145	      0.92932952	      0.52617713	     13.80827166	      1.82864545	    -15.05158274	     19.30088173	     19.30088173	      9.03079117	     -2.63772691	     -5.84683611	     21.44340128	    -13.37410791	      1.12124327	     59.88123087	     59.88123087	      6.58690546	    -15.84915845	      2.13602556	     -9.44682696	      5.68863749	      1.35308915	     12.31302572	    -18.20999002	     -2.30967966	     60.75306848	     44.91065035	      0.00000000	      0.00000000	      8.11202158	    -10.04520686	     -4.67255492	     32.09857117	     46.55548523	      0.00000000	      0.00000000
     58.57085714	     -2.34196370	     -4.75688980	      3.26700941	      1.06147884	      0.92944583	      0.52773811	     13.50802846	      1.85592578	    -15.32319416	     19.27051274	     19.27051274	      9.37811255	     -2.69033210	     -5.62817402	     23.34642891	    -13.32208973	      1.77918776	     61.44091605	     61.44091605	      7.15378600	    -15.83957418	      5.15322924	     -9.54958477	      5.61043711	      1.68929138	     13.71102397	    -19.05197767	     -2.00711012	     63.48279022	     44.84750642	      0.00000000	      0.00000000	      7.59096375	     -9.58219458	     -4.35280761	     29.84979378	     46.46860748	      0.00000000	      0.00000000
